<?xml version="1.0" standalone="no"?>
<!DOCTYPE svg PUBLIC "-//W3C//DTD SVG 20010904//EN"
 "http://www.w3.org/TR/2001/REC-SVG-20010904/DTD/svg10.dtd">
<svg version="1.0" xmlns="http://www.w3.org/2000/svg"
 width="900.000000pt" height="900.000000pt" viewBox="0 0 900.000000 900.000000"
 preserveAspectRatio="xMidYMid meet">
<metadata>
Created by potrace 1.10, written by Peter Selinger 2001-2011
</metadata>
<g transform="translate(0.000000,900.000000) scale(0.100000,-0.100000)"
fill="#000000" stroke="none">
<path d="M1166 7773 c-13 -13 -101 -32 -151 -33 -28 0 -55 -4 -60 -9 -16 -16
-105 -61 -120 -61 -18 0 -113 -106 -129 -145 -8 -18 -19 -36 -25 -39 -6 -4
-11 -15 -11 -25 0 -10 -9 -26 -20 -36 -13 -12 -20 -31 -20 -54 -1 -20 -9 -54
-20 -76 -18 -38 -19 -66 -20 -468 0 -408 1 -429 20 -464 18 -34 20 -57 20
-218 0 -162 2 -183 20 -213 18 -29 20 -50 20 -191 0 -111 4 -172 15 -207 10
-32 15 -92 15 -170 0 -94 4 -134 20 -180 14 -44 20 -87 20 -169 1 -76 5 -118
15 -135 9 -15 14 -53 15 -96 0 -50 6 -85 20 -115 11 -24 20 -57 20 -74 0 -16
7 -39 15 -49 8 -11 15 -34 15 -52 0 -17 7 -37 14 -44 8 -6 20 -27 26 -46 6
-19 15 -34 20 -34 11 0 50 -82 50 -106 0 -11 12 -31 26 -45 15 -13 32 -37 39
-53 16 -38 294 -316 316 -316 10 0 24 -6 31 -13 33 -33 189 -127 211 -127 14
0 30 -6 36 -14 7 -8 27 -18 44 -22 18 -3 41 -13 52 -20 11 -8 29 -14 41 -14
11 0 29 -9 39 -20 12 -14 31 -20 59 -20 23 -1 52 -7 66 -15 14 -8 41 -15 60
-15 19 0 55 -9 79 -20 35 -17 66 -20 170 -20 90 -1 133 -5 151 -15 14 -8 35
-14 47 -15 48 0 35 -40 -13 -40 -12 0 -54 -16 -93 -35 -39 -19 -81 -35 -94
-35 -14 0 -30 -7 -37 -15 -7 -8 -17 -15 -23 -15 -23 0 -104 -41 -182 -93 -32
-21 -69 -43 -82 -48 -13 -5 -39 -24 -57 -42 -18 -17 -52 -45 -75 -62 -78 -56
-109 -85 -115 -109 -3 -13 -20 -40 -38 -60 -36 -41 -69 -92 -97 -152 -11 -23
-24 -45 -30 -48 -6 -4 -11 -17 -11 -30 0 -12 -7 -31 -15 -42 -21 -28 -22 -461
0 -490 8 -10 15 -28 15 -39 0 -12 9 -38 20 -60 11 -22 20 -48 20 -58 0 -10 9
-30 20 -44 11 -14 20 -34 20 -43 0 -10 7 -23 15 -30 8 -7 15 -20 15 -29 0 -10
12 -28 26 -42 14 -13 32 -39 40 -57 7 -19 34 -56 59 -84 25 -28 45 -55 45 -61
0 -19 333 -347 375 -368 22 -12 55 -36 73 -55 18 -19 39 -34 47 -34 8 0 32
-15 52 -33 21 -18 56 -44 78 -57 22 -13 44 -30 48 -37 4 -7 18 -13 31 -13 13
0 29 -7 36 -15 7 -8 18 -15 26 -15 14 0 103 -45 119 -61 5 -5 18 -9 30 -9 11
0 35 -9 53 -20 22 -14 51 -20 90 -20 35 -1 72 -8 97 -20 58 -28 232 -28 294 0
25 12 65 20 96 20 37 0 60 6 78 20 14 11 33 20 42 20 9 0 40 16 69 35 29 19
59 35 66 35 6 0 29 14 50 30 21 17 42 30 48 30 17 0 222 211 262 270 21 30 52
68 69 84 17 17 31 34 31 39 0 5 14 29 30 54 17 24 30 50 30 57 0 8 6 19 14 26
16 12 79 138 91 180 4 14 15 34 24 45 25 30 81 143 81 164 0 10 7 24 15 31 8
7 15 20 15 29 0 9 9 30 20 46 11 17 20 42 20 56 0 15 9 38 20 52 11 14 20 36
20 49 0 13 7 33 15 44 8 10 15 27 15 37 0 11 9 30 20 44 11 14 20 40 20 58 0
23 7 37 24 48 30 20 36 14 36 -38 0 -27 7 -51 20 -68 11 -14 20 -33 20 -44 0
-10 7 -27 15 -37 8 -11 15 -29 15 -40 0 -12 9 -34 20 -51 11 -16 20 -41 20
-55 0 -14 9 -38 20 -55 11 -16 20 -37 20 -46 0 -9 7 -22 15 -29 8 -7 15 -20
15 -30 0 -10 7 -23 15 -30 8 -7 15 -21 15 -31 0 -17 27 -80 51 -119 5 -8 29
-56 54 -107 25 -50 52 -97 60 -103 8 -7 15 -18 15 -26 0 -7 14 -33 30 -57 16
-25 30 -49 30 -54 0 -5 16 -25 36 -44 20 -18 51 -56 68 -84 35 -53 241 -265
258 -265 6 0 27 -13 48 -30 21 -16 44 -30 51 -30 8 0 34 -14 58 -30 25 -17 56
-33 70 -37 15 -3 37 -14 50 -25 16 -12 40 -18 76 -18 31 0 71 -8 96 -20 62
-28 236 -28 294 0 24 12 62 19 95 20 35 0 70 7 95 20 22 11 46 20 55 20 9 0
20 4 25 9 16 16 105 61 119 61 8 0 19 7 26 15 7 8 23 15 36 15 13 0 27 6 31
13 4 7 26 24 48 37 22 13 57 39 78 57 20 18 43 33 51 33 8 0 36 21 63 48 27
26 71 63 98 82 66 47 313 288 332 324 8 15 32 47 54 71 21 23 45 57 53 76 8
19 26 45 40 58 14 14 26 32 26 42 0 9 7 22 15 29 8 7 15 20 15 30 0 9 9 29 20
43 11 14 20 35 20 46 0 12 9 38 20 58 11 21 20 47 20 58 0 11 7 29 15 39 22
29 21 462 0 490 -8 11 -15 30 -15 42 0 13 -5 26 -11 30 -6 3 -19 25 -30 48
-24 50 -59 108 -81 133 -8 10 -25 36 -36 59 -21 41 -52 71 -133 129 -23 17
-57 45 -75 62 -18 18 -44 37 -57 42 -13 5 -50 27 -82 48 -77 51 -159 93 -182
93 -5 0 -14 5 -21 12 -11 11 -58 30 -122 50 -19 6 -44 17 -55 24 -11 8 -31 14
-45 14 -51 0 -68 40 -17 40 12 1 33 7 47 15 18 10 61 14 151 15 104 0 135 3
170 20 24 11 60 20 79 20 19 0 46 7 60 15 14 8 43 14 66 15 28 0 47 6 59 20
10 11 28 20 39 20 12 0 30 6 41 14 11 7 36 16 57 20 20 4 39 13 42 21 3 8 17
15 31 15 22 0 190 99 205 120 3 4 21 15 40 23 41 18 298 272 315 314 7 15 24
39 39 52 14 14 26 32 26 41 0 10 9 29 20 43 11 14 20 31 20 39 0 7 7 22 15 32
8 11 15 29 15 41 0 12 7 30 15 41 8 10 19 36 25 57 6 20 15 37 20 37 6 0 10
17 10 38 0 21 9 55 20 77 15 29 20 60 20 115 1 46 6 85 15 100 10 17 14 57 15
123 0 74 4 104 17 124 13 20 18 61 23 207 4 99 12 197 19 216 6 20 11 100 11
188 0 133 3 158 20 192 18 35 20 59 20 217 0 159 2 182 20 216 19 35 20 56 20
464 -1 402 -2 430 -20 468 -11 22 -19 56 -20 76 0 23 -7 42 -20 54 -11 10 -20
26 -20 35 0 10 -7 23 -15 30 -8 7 -15 21 -15 32 0 22 -116 148 -136 148 -13 0
-97 42 -118 59 -28 22 -303 31 -446 14 -41 -5 -90 -17 -109 -27 -19 -10 -43
-15 -56 -12 -14 4 -32 -1 -48 -14 -14 -11 -36 -20 -49 -20 -12 0 -32 -7 -42
-15 -11 -8 -30 -15 -41 -15 -12 0 -32 -9 -45 -20 -13 -11 -31 -20 -41 -20 -10
0 -21 -4 -24 -10 -7 -11 -106 -60 -122 -60 -5 0 -18 -9 -28 -20 -10 -11 -22
-20 -27 -20 -4 0 -27 -13 -50 -30 -22 -16 -47 -30 -54 -30 -7 0 -30 -15 -50
-32 -21 -18 -47 -37 -60 -43 -12 -5 -48 -34 -79 -62 -31 -29 -62 -53 -69 -53
-6 0 -37 -21 -67 -48 -29 -26 -76 -65 -104 -87 -27 -21 -64 -53 -81 -69 -17
-17 -102 -101 -188 -186 -87 -85 -169 -169 -183 -187 -13 -17 -39 -42 -58 -55
-19 -12 -39 -37 -45 -53 -6 -17 -51 -71 -100 -120 -50 -50 -105 -112 -122
-140 -18 -27 -45 -64 -62 -80 -44 -43 -96 -111 -96 -125 0 -6 -18 -28 -40 -47
-22 -20 -49 -54 -61 -77 -12 -22 -48 -69 -80 -104 -32 -34 -59 -67 -59 -72 0
-5 -23 -35 -51 -67 -28 -32 -57 -72 -64 -88 -7 -17 -27 -42 -44 -58 -17 -15
-31 -35 -31 -45 0 -10 -16 -33 -35 -52 -19 -19 -35 -42 -35 -52 0 -11 -16 -35
-35 -55 -19 -20 -35 -43 -35 -51 0 -8 -16 -32 -35 -53 -19 -22 -35 -47 -35
-58 0 -10 -7 -24 -15 -31 -8 -7 -15 -19 -15 -28 0 -8 -18 -34 -40 -58 -22 -24
-40 -50 -40 -58 0 -7 -18 -41 -41 -75 -22 -33 -58 -93 -79 -133 -21 -40 -53
-99 -70 -130 -21 -41 -36 -58 -50 -58 -14 0 -29 17 -50 58 -30 56 -40 75 -60
110 -6 9 -20 35 -31 57 -25 52 -38 72 -71 116 -16 20 -28 44 -28 53 0 9 -18
36 -40 60 -22 24 -40 50 -40 58 0 9 -7 21 -15 28 -8 7 -15 21 -15 31 0 11 -16
36 -35 58 -19 21 -35 45 -35 52 0 8 -16 32 -35 53 -19 22 -35 47 -35 56 0 9
-16 31 -35 50 -19 19 -35 42 -35 51 0 9 -22 39 -49 65 -27 27 -52 61 -56 75
-4 14 -29 48 -56 75 -27 26 -49 55 -49 64 0 9 -22 37 -49 64 -26 26 -58 67
-69 90 -12 23 -40 59 -62 78 -22 20 -40 42 -40 48 0 16 -39 68 -86 115 -22 22
-51 58 -64 80 -13 22 -70 88 -127 146 -57 59 -103 114 -103 123 0 9 -12 26
-27 39 -15 12 -39 34 -53 48 -215 221 -326 330 -375 372 -33 27 -66 58 -73 69
-7 10 -18 18 -24 18 -5 0 -44 32 -85 70 -41 39 -81 70 -88 70 -8 0 -39 24 -70
53 -31 28 -67 57 -79 62 -13 6 -39 25 -60 43 -20 17 -43 32 -50 32 -7 0 -32
14 -54 30 -23 17 -46 30 -50 30 -5 0 -17 9 -27 20 -10 11 -23 20 -28 20 -16 0
-115 49 -122 60 -3 6 -14 10 -24 10 -10 0 -28 9 -41 20 -13 11 -33 20 -45 20
-11 0 -30 7 -41 15 -10 8 -30 15 -43 15 -14 0 -33 8 -43 17 -12 11 -33 16 -58
15 -23 -2 -54 5 -72 15 -18 9 -60 20 -93 24 -33 3 -86 14 -118 23 -62 17 -99
20 -111 9z"/>
</g>
</svg>
